# xmcd CD database file
#
# Track frame offsets:
#	150
#	15694
#	32391
#	44215
#	57516
#	74989
#	88962
#	106286
#	119385
#	131362
#	142650
#	156539
#	181536
#	198912
#
# Disc length: 2825 seconds
#
# Revision: 1
# Processed by: cddbd v1.5.2PL0 Copyright (c) Steve Scherf et al.
# Submitted via: CDex 1.70
#
DISCID=c80b070e
DTITLE=Various Artist - More Songs Of Route 66: Roadside Attractions
DYEAR=2001
DGENRE=Country
TTITLE0=Marcia Ball - Marcia Ball - Introduction-Route 66
TTITLE1=Randy Garibay - Randy Garibay - Sweet Home Chicago
TTITLE2=Gary Primich - Gary Primich - You Came A Long Way From St. Louis
TTITLE3=Maryann Price - Maryann Price - Hoppin' In Joplin
TTITLE4=Jimmy LaFave and Night Tribe - Jimmy LaFave and Night Tribe - Oklahoma Hills
TTITLE5=Jason Roberts - Jason Roberts - T-U-L-S-A Straight Ahead
TTITLE6=Cindy Cashdollar - Cindy Cashdollar - Midnight In Amarillo
TTITLE7=Dale Watson - Dale Watson - Tucumcari, Here I Come
TTITLE8=Asleep At The Wheel - Asleep At The Wheel - Albuquerque
TTITLE9=Two High String Band - Two High String Band - Goodbye, California (Hello, Illinois)
TTITLE10=Dale Watson - Dale Watson - Gallop To Gallup
TTITLE11=Red Dirt Rangers - Red Dirt Rangers - Arizona State Line
TTITLE12=The Leroi Brothers - The Leroi Brothers - California Sun
TTITLE13=Steve James - Steve James - 66 Highway Blues
EXTD=YEAR: 2001
EXTT0=
EXTT1=
EXTT2=
EXTT3=
EXTT4=
EXTT5=
EXTT6=
EXTT7=
EXTT8=
EXTT9=
EXTT10=
EXTT11=
EXTT12=
EXTT13=
PLAYORDER=
